# xmcd
#
# Track frame offsets:
#	150
#	14740
#	31501
#	47595
#	64193
#	80542
#	95430
#	111157
#	126239
#	141847
#	155491
#	170893
#	187563
#	203836
#
# Disc length: 2921 seconds
#
# Revision: 1
# Processed by: cddbd v1.5.1PL2 Copyright (c) Steve Scherf et al.
# Submitted via: audiograbber 1.83.01
#
DISCID=b90b670e
DTITLE=Suncene skale 05 - Nove zvijezde CD2  - Suncene skale 2005
DYEAR=2005
DGENRE=Pop
TTITLE0=BOJAN DELIC - Voz
TTITLE1=MARTIN PEROVIC - Mozes li da mi odolis
TTITLE2=IVANA KNEZEVIC - Drugacije
TTITLE3=VOX - Moja pot
TTITLE4=DRAGANA KOTORCEVIC - Kap po kap
TTITLE5=MIRKO GAVRIC - Ostavicu trag
TTITLE6=MLADENA - 100 godine samoce
TTITLE7=DRAGAN TODOROVIC - Zivim iz navike
TTITLE8=YO - Izlog
TTITLE9=CHARTER - Da si lagala
TTITLE10=SABRINA - Okreni se
TTITLE11=SASA BARJAKTAROVIC - Korak do dna
TTITLE12=AZRA REGIC - Svi moji putevi
TTITLE13=OLGICA - Pa sta
EXTD=
EXTT0=
EXTT1=
EXTT2=
EXTT3=
EXTT4=
EXTT5=
EXTT6=
EXTT7=
EXTT8=
EXTT9=
EXTT10=
EXTT11=
EXTT12=
EXTT13=
PLAYORDER=
